<?xml version="1.0" encoding="UTF-8"?>
<svg version="1.1" xmlns="http://www.w3.org/2000/svg" width="500" height="500">
<path d="M0 0 C2.05137269 0.01613522 4.10078453 0.0000163 6.15209961 -0.01904297 C17.11187752 -0.03709497 28.06942364 0.72290294 37.26342773 7.18408203 C39.69156825 8.88543219 42.31365907 10.12171145 44.98608398 11.39111328 C44.98608398 12.05111328 44.98608398 12.71111328 44.98608398 13.39111328 C46.63608398 13.72111328 48.28608398 14.05111328 49.98608398 14.39111328 C49.98608398 15.05111328 49.98608398 15.71111328 49.98608398 16.39111328 C50.70795898 16.61798828 51.42983398 16.84486328 52.17358398 17.07861328 C55.57505645 18.6659671 57.39634041 20.67804858 59.98608398 23.39111328 C61.10267887 24.33860846 62.22824755 25.27559772 63.36108398 26.20361328 C67.30229092 29.53848069 70.90835911 33.23758791 73.98608398 37.39111328 C73.98608398 38.05111328 73.98608398 38.71111328 73.98608398 39.39111328 C75.30608398 40.05111328 76.62608398 40.71111328 77.98608398 41.39111328 C77.98608398 42.05111328 77.98608398 42.71111328 77.98608398 43.39111328 C78.97608398 43.72111328 79.96608398 44.05111328 80.98608398 44.39111328 C82.85327148 46.50048828 82.85327148 46.50048828 84.86108398 49.14111328 C87.71673628 52.81789637 90.64473306 56.14257766 93.98608398 59.39111328 C95.32902879 61.0500451 96.66353086 62.71587933 97.98608398 64.39111328 C98.56358398 64.94798828 99.14108398 65.50486328 99.73608398 66.07861328 C100.98608398 67.39111328 100.98608398 67.39111328 100.98608398 69.39111328 C101.97608398 69.72111328 102.96608398 70.05111328 103.98608398 70.39111328 C105.23540765 71.83769858 106.47954405 73.28998399 107.66967773 74.78564453 C109.10568694 76.59070676 109.10568694 76.59070676 111.42358398 78.82861328 C113.88724117 81.29227047 116.13319627 83.84287203 118.38061523 86.50048828 C120.08207401 88.50415263 121.81231318 90.48006469 123.54858398 92.45361328 C125.6088202 94.79911297 127.63461578 97.16224149 129.61108398 99.57861328 C131.93243409 102.40749588 131.93243409 102.40749588 134.48608398 104.89111328 C137.18095787 107.58598717 139.54712673 110.46436457 141.98608398 113.39111328 C142.87295898 114.25736328 143.75983398 115.12361328 144.67358398 116.01611328 C146.72562349 118.12361331 147.88959447 119.69972992 148.98608398 122.39111328 C149.64608398 122.39111328 150.30608398 122.39111328 150.98608398 122.39111328 C152.49389648 123.85205078 152.49389648 123.85205078 154.11108398 125.76611328 C154.91932617 126.70583984 154.91932617 126.70583984 155.74389648 127.66455078 C156.98608398 129.39111328 156.98608398 129.39111328 156.98608398 131.39111328 C157.58807617 131.65666016 158.19006836 131.92220703 158.81030273 132.19580078 C161.0662322 133.43514444 162.1955201 134.5296076 163.79858398 136.51611328 C166.62797964 139.96624369 169.57239968 143.28770897 172.56811523 146.59423828 C173.98608398 148.39111328 173.98608398 148.39111328 174.98608398 151.39111328 C175.97608398 151.72111328 176.96608398 152.05111328 177.98608398 152.39111328 C179.23540765 153.83769858 180.47954405 155.28998399 181.66967773 156.78564453 C183.10568694 158.59070676 183.10568694 158.59070676 185.42358398 160.82861328 C188.4663622 163.8713915 191.21583208 167.10187747 193.98608398 170.39111328 C197.82321959 174.93283458 201.64230528 179.32307325 206.11108398 183.26611328 C210.10581522 187.79347535 210.28081839 193.06399863 210.29858398 198.89111328 C210.3153418 200.15955078 210.33209961 201.42798828 210.34936523 202.73486328 C209.87006241 207.55881433 208.53539679 210.98264709 204.92358398 214.26611328 C202.98608398 215.39111328 202.98608398 215.39111328 200.98608398 215.39111328 C200.98608398 216.05111328 200.98608398 216.71111328 200.98608398 217.39111328 C198.33869482 218.85174179 197.09160064 219.39111328 193.98608398 219.39111328 C193.98608398 220.05111328 193.98608398 220.71111328 193.98608398 221.39111328 C186.16565506 222.34408624 181.09044386 221.19449285 174.62670898 216.66064453 C170.93027232 213.48367752 167.9839201 209.92436349 165.05639648 206.03955078 C162.98869299 203.27608702 162.98869299 203.27608702 160.22827148 200.68017578 C157.98608398 198.39111328 157.98608398 198.39111328 157.98608398 196.39111328 C156.99608398 196.06111328 156.00608398 195.73111328 154.98608398 195.39111328 C152.79858398 193.51611328 152.79858398 193.51611328 150.98608398 191.39111328 C150.98608398 190.40111328 150.98608398 189.41111328 150.98608398 188.39111328 C150.4150293 188.15650391 149.84397461 187.92189453 149.25561523 187.68017578 C146.45663349 186.09039269 144.78715449 184.19127588 142.67358398 181.76611328 C141.89370117 180.87537109 141.11381836 179.98462891 140.31030273 179.06689453 C139.54331055 178.18388672 138.77631836 177.30087891 137.98608398 176.39111328 C137.2912793 175.62154297 136.59647461 174.85197266 135.88061523 174.05908203 C134.94282227 173.016875 134.94282227 173.016875 133.98608398 171.95361328 C133.15077148 171.02742188 133.15077148 171.02742188 132.29858398 170.08251953 C130.98608398 168.39111328 130.98608398 168.39111328 129.98608398 165.39111328 C128.99608398 165.06111328 128.00608398 164.73111328 126.98608398 164.39111328 C125.37280273 162.82470703 125.37280273 162.82470703 123.67358398 160.82861328 C123.05999023 160.10931641 122.44639648 159.39001953 121.81420898 158.64892578 C120.11049267 156.54476333 118.50869959 154.39774699 116.92358398 152.20361328 C115.09952308 149.71493445 113.33471614 147.6913285 110.92358398 145.76611328 C107.72217326 143.17773866 105.46174429 140.66772251 102.98608398 137.39111328 C102.98608398 136.73111328 102.98608398 136.07111328 102.98608398 135.39111328 C102.32608398 135.39111328 101.66608398 135.39111328 100.98608398 135.39111328 C99.25952148 133.71142578 99.25952148 133.71142578 97.36108398 131.51611328 C96.41362305 130.43716797 96.41362305 130.43716797 95.44702148 129.33642578 C93.98608398 127.39111328 93.98608398 127.39111328 93.98608398 125.39111328 C93.39698242 125.15005859 92.80788086 124.90900391 92.20092773 124.66064453 C89.56073193 123.14730478 88.33372137 121.53163117 86.54858398 119.07861328 C83.90732883 115.55693975 81.19180151 112.42354878 77.98608398 109.39111328 C76.616242 108.09531681 75.27097908 106.77118579 73.98608398 105.39111328 C73.98608398 104.73111328 73.98608398 104.07111328 73.98608398 103.39111328 C73.32608398 103.39111328 72.66608398 103.39111328 71.98608398 103.39111328 C70.65405273 101.81689453 70.65405273 101.81689453 69.17358398 99.70361328 C66.67867457 96.26859307 64.07017771 93.32476341 60.98608398 90.39111328 C56.893261 86.40447203 53.00779532 82.34519038 49.34155273 77.96142578 C47.87279204 76.21408347 47.87279204 76.21408347 45.61108398 74.07861328 C43.98608398 72.39111328 43.98608398 72.39111328 43.98608398 70.39111328 C43.32608398 70.39111328 42.66608398 70.39111328 41.98608398 70.39111328 C41.98608398 69.73111328 41.98608398 69.07111328 41.98608398 68.39111328 C41.32608398 68.39111328 40.66608398 68.39111328 39.98608398 68.39111328 C38.43530273 66.81689453 38.43530273 66.81689453 36.67358398 64.70361328 C33.07779336 60.47986754 29.6286288 56.48614316 24.98608398 53.39111328 C24.98608398 52.73111328 24.98608398 52.07111328 24.98608398 51.39111328 C22.01608398 50.40111328 22.01608398 50.40111328 18.98608398 49.39111328 C18.98608398 48.73111328 18.98608398 48.07111328 18.98608398 47.39111328 C17.68670898 47.24673828 16.38733398 47.10236328 15.04858398 46.95361328 C11.11108398 46.51611328 11.11108398 46.51611328 9.98608398 45.39111328 C7.41088948 45.26339314 4.874352 45.20589474 2.29858398 45.20361328 C1.59024414 45.19136719 0.8819043 45.17912109 0.15209961 45.16650391 C-4.32197256 45.15411035 -7.77325172 45.82026692 -12.01391602 47.39111328 C-13.00391602 47.39111328 -13.99391602 47.39111328 -15.01391602 47.39111328 C-15.01391602 48.05111328 -15.01391602 48.71111328 -15.01391602 49.39111328 C-17.98391602 50.38111328 -17.98391602 50.38111328 -21.01391602 51.39111328 C-21.01391602 52.05111328 -21.01391602 52.71111328 -21.01391602 53.39111328 C-22.58813477 54.94189453 -22.58813477 54.94189453 -24.70141602 56.70361328 C-28.92516176 60.2994039 -32.91888614 63.74856846 -36.01391602 68.39111328 C-36.67391602 68.39111328 -37.33391602 68.39111328 -38.01391602 68.39111328 C-38.01391602 69.05111328 -38.01391602 69.71111328 -38.01391602 70.39111328 C-38.67391602 70.39111328 -39.33391602 70.39111328 -40.01391602 70.39111328 C-40.01391602 71.05111328 -40.01391602 71.71111328 -40.01391602 72.39111328 C-41.65694555 74.08108651 -43.32862913 75.74327722 -45.01391602 77.39111328 C-45.92087331 78.48616116 -46.81704086 79.59024813 -47.70141602 80.70361328 C-48.46454102 81.59048828 -49.22766602 82.47736328 -50.01391602 83.39111328 C-50.67391602 83.39111328 -51.33391602 83.39111328 -52.01391602 83.39111328 C-52.2859082 83.98021484 -52.55790039 84.56931641 -52.83813477 85.17626953 C-55.76632206 90.69215722 -60.64176931 95.01896658 -65.01391602 99.39111328 C-66.84730521 101.51943899 -68.66439169 103.65920051 -70.46313477 105.81689453 C-70.97489258 106.33638672 -71.48665039 106.85587891 -72.01391602 107.39111328 C-72.67391602 107.39111328 -73.33391602 107.39111328 -74.01391602 107.39111328 C-74.27688477 107.95958984 -74.53985352 108.52806641 -74.81079102 109.11376953 C-77.58236654 114.35996605 -81.44899514 119.35894701 -86.13891602 123.01611328 C-89.01959669 125.39580601 -90.80614689 127.65628871 -92.83813477 130.74267578 C-94.09787181 132.50881875 -95.37729653 133.9660884 -97.01391602 135.39111328 C-97.67391602 135.39111328 -98.33391602 135.39111328 -99.01391602 135.39111328 C-99.05516602 135.94798828 -99.09641602 136.50486328 -99.13891602 137.07861328 C-100.21395566 139.91978948 -101.89917927 141.06616051 -104.25219727 142.89501953 C-107.97496586 146.05648377 -111.81813167 149.99954459 -114.01391602 154.39111328 C-114.67391602 154.39111328 -115.33391602 154.39111328 -116.01391602 154.39111328 C-116.30266602 154.96861328 -116.59141602 155.54611328 -116.88891602 156.14111328 C-118.01391602 158.39111328 -118.01391602 158.39111328 -119.07114887 160.12359905 C-120.3322713 163.15681151 -120.24538833 165.63758666 -120.22319031 168.92134094 C-120.22152117 169.57571064 -120.21985203 170.23008033 -120.21813232 170.90427941 C-120.2100614 173.09577483 -120.18752725 175.28688012 -120.16503906 177.47827148 C-120.15624812 179.05055799 -120.14833543 180.62284961 -120.14123535 182.19514465 C-120.11931846 186.46860379 -120.08474798 190.74187712 -120.04770637 195.01522851 C-120.0107431 199.49783597 -119.98455716 203.9805073 -119.95698547 208.46318054 C-119.90901349 216.00310233 -119.85327138 223.5429349 -119.79248047 231.08276367 C-119.72250649 239.76779317 -119.66257014 248.45284356 -119.6086213 257.13798648 C-119.55094756 266.41171149 -119.48633292 275.68537856 -119.41946435 284.95904136 C-119.4007392 287.61458369 -119.38322749 290.27013172 -119.36597252 292.92568398 C-119.3382886 297.12737599 -119.30587032 301.3290078 -119.2700119 305.53063774 C-119.25761485 307.061096 -119.24667451 308.59156698 -119.23741341 310.12204742 C-119.17684211 319.91564554 -118.77451772 329.62837296 -118.01391602 339.39111328 C-117.35391602 339.39111328 -116.69391602 339.39111328 -116.01391602 339.39111328 C-115.64266602 340.23673828 -115.27141602 341.08236328 -114.88891602 341.95361328 C-112.53324657 346.2723406 -109.53655801 351.12979228 -105.01391602 353.39111328 C-105.01391602 354.05111328 -105.01391602 354.71111328 -105.01391602 355.39111328 C-103.03391602 356.05111328 -101.05391602 356.71111328 -99.01391602 357.39111328 C-99.01391602 358.05111328 -99.01391602 358.71111328 -99.01391602 359.39111328 C-98.02649414 359.45169922 -97.03907227 359.51228516 -96.02172852 359.57470703 C-94.74040039 359.65849609 -93.45907227 359.74228516 -92.13891602 359.82861328 C-90.86274414 359.90982422 -89.58657227 359.99103516 -88.27172852 360.07470703 C-85.01391602 360.39111328 -85.01391602 360.39111328 -83.01391602 361.39111328 C-80.89662058 361.50156578 -78.77586758 361.54764281 -76.65576172 361.56469727 C-76.00347092 361.57138428 -75.35118011 361.57807129 -74.67912292 361.58496094 C-73.26046435 361.59902159 -71.84178302 361.61091242 -70.42308998 361.62090874 C-68.17359365 361.63732455 -65.92426404 361.66056581 -63.67485046 361.68580627 C-57.27827285 361.75654264 -50.8816248 361.81651694 -44.48486328 361.86791992 C-40.57264719 361.89983754 -36.66061911 361.9411519 -32.74855614 361.98811531 C-31.26114497 362.00406748 -29.77369047 362.01642014 -28.28621864 362.02502251 C-26.19696784 362.03727291 -24.10815271 362.06146413 -22.01904297 362.08813477 C-20.83260696 362.09844223 -19.64617096 362.10874969 -18.42378235 362.11936951 C-14.66495427 362.41892322 -11.59434177 363.24401326 -8.01391602 364.39111328 C-8.01391602 365.05111328 -8.01391602 365.71111328 -8.01391602 366.39111328 C-7.25079102 366.65923828 -6.48766602 366.92736328 -5.70141602 367.20361328 C-1.19571351 369.19450508 0.68320659 372.09938724 2.98608398 376.39111328 C4.75933302 382.16615406 4.48638482 388.57744755 2.98608398 394.39111328 C2.32608398 394.39111328 1.66608398 394.39111328 0.98608398 394.39111328 C0.64577148 395.47392578 0.64577148 395.47392578 0.29858398 396.57861328 C-1.60729185 400.66263292 -4.18052171 403.45121867 -8.21299744 405.51847839 C-11.68030984 406.59873035 -14.92205535 406.6786887 -18.51611328 406.66577148 C-19.25524963 406.67088242 -19.99438599 406.67599335 -20.75592041 406.68125916 C-23.1974706 406.69514121 -25.63873728 406.69419658 -28.08032227 406.69189453 C-29.79646405 406.69578795 -31.51260489 406.70012394 -33.22874451 406.70487976 C-36.83416859 406.71234323 -40.43949482 406.71205396 -44.04492188 406.70678711 C-47.70585513 406.70218572 -51.36645398 406.70895346 -55.02734375 406.72729492 C-96.74010191 406.93470807 -96.74010191 406.93470807 -110.01391602 403.39111328 C-110.67391602 402.73111328 -111.33391602 402.07111328 -112.01391602 401.39111328 C-114.08265636 400.74858978 -114.08265636 400.74858978 -116.01391602 400.39111328 C-116.01391602 399.73111328 -116.01391602 399.07111328 -116.01391602 398.39111328 C-116.65200195 398.28154297 -117.29008789 398.17197266 -117.94750977 398.05908203 C-119.18694336 397.82125 -119.18694336 397.82125 -120.45141602 397.57861328 C-121.27512695 397.42779297 -122.09883789 397.27697266 -122.94750977 397.12158203 C-123.62942383 396.88052734 -124.31133789 396.63947266 -125.01391602 396.39111328 C-125.50891602 394.90611328 -125.50891602 394.90611328 -126.01391602 393.39111328 C-128.0289996 392.65787532 -128.0289996 392.65787532 -130.01391602 392.39111328 C-130.01391602 391.73111328 -130.01391602 391.07111328 -130.01391602 390.39111328 C-131.66391602 389.73111328 -133.31391602 389.07111328 -135.01391602 388.39111328 C-135.01391602 387.73111328 -135.01391602 387.07111328 -135.01391602 386.39111328 C-135.57079102 386.14361328 -136.12766602 385.89611328 -136.70141602 385.64111328 C-143.48140524 381.97625424 -148.43997066 376.16279921 -152.01391602 369.39111328 C-152.01391602 368.73111328 -152.01391602 368.07111328 -152.01391602 367.39111328 C-153.00391602 367.06111328 -153.99391602 366.73111328 -155.01391602 366.39111328 C-156.29516602 363.73095703 -156.29516602 363.73095703 -157.51391602 360.32861328 C-158.11719727 358.67152344 -158.11719727 358.67152344 -158.73266602 356.98095703 C-159.15547852 355.79630859 -159.57829102 354.61166016 -160.01391602 353.39111328 C-160.27213135 352.7867041 -160.53034668 352.18229492 -160.79638672 351.55957031 C-163.15476612 345.91242184 -163.74504468 340.46210807 -164.20141602 334.39111328 C-164.28327148 333.42560547 -164.36512695 332.46009766 -164.44946289 331.46533203 C-164.64786042 329.10790258 -164.83577331 326.75014485 -165.01391602 324.39111328 C-165.34391602 324.39111328 -165.67391602 324.39111328 -166.01391602 324.39111328 C-166.34391602 287.76111328 -166.67391602 251.13111328 -167.01391602 213.39111328 C-169.65391602 215.37111328 -172.29391602 217.35111328 -175.01391602 219.39111328 C-179.00171604 221.38501329 -180.48539174 221.61798291 -184.76391602 221.51611328 C-185.74875977 221.49806641 -186.73360352 221.48001953 -187.74829102 221.46142578 C-188.49594727 221.43822266 -189.24360352 221.41501953 -190.01391602 221.39111328 C-190.01391602 220.73111328 -190.01391602 220.07111328 -190.01391602 219.39111328 C-190.79766602 219.24673828 -191.58141602 219.10236328 -192.38891602 218.95361328 C-195.01391602 218.39111328 -195.01391602 218.39111328 -197.01391602 217.39111328 C-197.01391602 216.73111328 -197.01391602 216.07111328 -197.01391602 215.39111328 C-198.15860352 215.05080078 -198.15860352 215.05080078 -199.32641602 214.70361328 C-203.17332084 212.82489232 -204.16681716 210.085311 -206.01391602 206.39111328 C-206.13809565 203.97683007 -206.18956579 201.55855896 -206.20141602 199.14111328 C-206.2155957 197.83658203 -206.22977539 196.53205078 -206.24438477 195.18798828 C-205.82547507 188.28662856 -204.00081033 185.03799207 -199.01391602 180.39111328 C-197.49323563 178.66324508 -196.01513848 176.90504493 -194.54125977 175.13720703 C-193.01391602 173.39111328 -193.01391602 173.39111328 -191.07641602 171.48876953 C-188.129152 168.49126806 -185.66661126 165.16083113 -183.11157227 161.82861328 C-180.94557444 159.31169961 -178.62906838 157.42415532 -176.01391602 155.39111328 C-175.17860352 154.27736328 -175.17860352 154.27736328 -174.32641602 153.14111328 C-173.89329102 152.56361328 -173.46016602 151.98611328 -173.01391602 151.39111328 C-172.35391602 151.39111328 -171.69391602 151.39111328 -171.01391602 151.39111328 C-170.7496582 150.80845703 -170.48540039 150.22580078 -170.21313477 149.62548828 C-168.96609105 147.30200617 -167.59078451 145.59524223 -165.82641602 143.64111328 C-163.88204162 141.47708152 -161.94894505 139.31440057 -160.06860352 137.09423828 C-159.45243164 136.36720703 -158.83625977 135.64017578 -158.20141602 134.89111328 C-157.35643555 133.88564453 -157.35643555 133.88564453 -156.49438477 132.85986328 C-155.01391602 131.39111328 -155.01391602 131.39111328 -153.01391602 131.39111328 C-152.64266602 130.27736328 -152.64266602 130.27736328 -152.26391602 129.14111328 C-150.90926562 126.16088241 -149.50376192 124.49192076 -147.01391602 122.39111328 C-146.35391602 122.39111328 -145.69391602 122.39111328 -145.01391602 122.39111328 C-144.97266602 121.83423828 -144.93141602 121.27736328 -144.88891602 120.70361328 C-143.81811891 117.8736495 -142.1692922 116.82177706 -139.82641602 115.00830078 C-136.76934947 112.28065951 -134.41558019 108.98840293 -131.90844727 105.76220703 C-130.39073358 103.86271795 -128.87926089 102.14262055 -127.13891602 100.45361328 C-124.85647961 98.38324756 -124.85647961 98.38324756 -123.01391602 95.39111328 C-122.35391602 95.39111328 -121.69391602 95.39111328 -121.01391602 95.39111328 C-120.64266602 94.52486328 -120.64266602 94.52486328 -120.26391602 93.64111328 C-118.81629793 91.03540073 -117.15689335 89.47617231 -115.01391602 87.39111328 C-113.85981364 86.08587845 -112.71476328 84.77261131 -111.57641602 83.45361328 C-108.84073208 80.2970549 -105.96784047 77.34503773 -103.01391602 74.39111328 C-102.29204102 73.46298828 -101.57016602 72.53486328 -100.82641602 71.57861328 C-100.22829102 70.85673828 -99.63016602 70.13486328 -99.01391602 69.39111328 C-98.35391602 69.39111328 -97.69391602 69.39111328 -97.01391602 69.39111328 C-96.92110352 68.52486328 -96.92110352 68.52486328 -96.82641602 67.64111328 C-95.69477946 64.50735052 -93.6084931 63.44263935 -91.01391602 61.39111328 C-89.66113487 59.40421597 -88.32823296 57.40366111 -87.01391602 55.39111328 C-85.36903308 53.70294395 -83.70054059 52.03758013 -82.01391602 50.39111328 C-80.43475537 48.52731381 -78.88133933 46.64657907 -77.34594727 44.74658203 C-76.90637695 44.29927734 -76.46680664 43.85197266 -76.01391602 43.39111328 C-75.35391602 43.39111328 -74.69391602 43.39111328 -74.01391602 43.39111328 C-73.35391602 42.07111328 -72.69391602 40.75111328 -72.01391602 39.39111328 C-71.35391602 39.39111328 -70.69391602 39.39111328 -70.01391602 39.39111328 C-69.67360352 38.58673828 -69.67360352 38.58673828 -69.32641602 37.76611328 C-65.81206467 31.40681085 -60.47990684 27.01857142 -55.01391602 22.39111328 C-54.02391602 21.51132813 -54.02391602 21.51132813 -53.01391602 20.61376953 C-52.08579102 19.79199219 -52.08579102 19.79199219 -51.13891602 18.95361328 C-50.3074707 18.21304688 -50.3074707 18.21304688 -49.45922852 17.45751953 C-48.01391602 16.39111328 -48.01391602 16.39111328 -46.01391602 16.39111328 C-46.01391602 15.73111328 -46.01391602 15.07111328 -46.01391602 14.39111328 C-42.14355595 11.30827065 -38.00605452 8.85912627 -33.01391602 8.39111328 C-33.01391602 7.73111328 -33.01391602 7.07111328 -33.01391602 6.39111328 C-32.37454102 6.26736328 -31.73516602 6.14361328 -31.07641602 6.01611328 C-30.39579102 5.80986328 -29.71516602 5.60361328 -29.01391602 5.39111328 C-28.68391602 4.73111328 -28.35391602 4.07111328 -28.01391602 3.39111328 C-18.85825278 0.43367301 -9.54895321 -0.08899729 0 0 Z " fill="#000000" transform="translate(246.013916015625,50.60888671875)"/>
<path d="M0 0 C6.4416044 2.84981975 11.36677817 7.12342113 16.109375 12.234375 C19.23876655 15.15686463 22.88394302 17.23230114 26.546875 19.421875 C29 21 29 21 30.4296875 22.4609375 C33.65091908 25.61806497 37.90280799 27.59819779 41.7734375 29.8671875 C44.97012909 31.98025482 47.3503894 34.2496604 50 37 C51.45854187 38.15161393 52.93711323 39.27846065 54.4375 40.375 C57.97236497 43.07018774 60.85122961 45.84884446 63.61328125 49.32421875 C65.02895234 51.09760057 65.02895234 51.09760057 66.95703125 52.89453125 C76.7295358 62.96600343 82.52441511 77.65059439 86 91 C86.17732666 91.63583008 86.35465332 92.27166016 86.53735352 92.92675781 C91.01221823 110.44110952 89.00518838 130.13502363 83 147 C82.64292969 148.04542969 82.28585937 149.09085938 81.91796875 150.16796875 C80.15904926 154.91214603 77.94213247 158.86262622 75 163 C74.40703125 164.09054687 73.8140625 165.18109375 73.203125 166.3046875 C70.10868885 171.76642451 65.6574336 176.08077851 61.34570312 180.58691406 C60.17899315 181.8120442 59.03285151 183.05669927 57.890625 184.3046875 C52.94193597 189.56011346 47.35964146 193.57393052 41 197 C40.34 197 39.68 197 39 197 C39 197.66 39 198.32 39 199 C34.03947126 201.1108633 29.03996346 203.08721387 24 205 C22.9171875 205.42539062 21.834375 205.85078125 20.71875 206.2890625 C2.33044105 212.37471713 -20.13164947 211.18618445 -38 204 C-39.30070376 203.51451688 -40.60280027 203.03274915 -41.90625 202.5546875 C-44.95788144 201.413586 -47.98440586 200.23246022 -51 199 C-51 198.34 -51 197.68 -51 197 C-52.09441406 196.59587891 -52.09441406 196.59587891 -53.2109375 196.18359375 C-66.74628867 190.43960019 -80.22399425 176.45597397 -87 163.5 C-88 161 -88 161 -88 159 C-88.66 159 -89.32 159 -90 159 C-101.70529703 131.8437109 -103.98455209 105.46522348 -93.66015625 77.3515625 C-91.78035101 72.63205147 -89.67126418 68.32076982 -87 64 C-86.45601563 63.09121094 -85.91203125 62.18242187 -85.3515625 61.24609375 C-84.78179687 60.31925781 -84.21203125 59.39242187 -83.625 58.4375 C-83.06039063 57.50808594 -82.49578125 56.57867187 -81.9140625 55.62109375 C-79.88128195 52.83742896 -77.72410169 51.08598417 -75 49 C-74.236875 47.989375 -73.47375 46.97875 -72.6875 45.9375 C-68.89286032 41.78987058 -65.24811205 40.3468323 -59.6953125 39.75390625 C-55.07983411 39.62181343 -51.31872149 40.22821683 -47 42 C-46.71511719 41.27296875 -46.43023437 40.5459375 -46.13671875 39.796875 C-43.20174513 32.57542788 -39.76062106 26.26093472 -34.80859375 20.22265625 C-33.60771401 18.74684508 -32.45256872 17.23256088 -31.34765625 15.68359375 C-23.69126649 5.03670823 -13.40340174 -2.10439882 0 0 Z M-4 52 C-4.63196384 53.49707939 -5.25514393 54.99786703 -5.875 56.5 C-6.39707031 57.75296875 -6.39707031 57.75296875 -6.9296875 59.03125 C-9.3111056 65.63664326 -10.32060561 71.99169874 -10.9375 78.9375 C-11.57419305 85.27405025 -12.34293423 91.14361013 -15 97 C-15.391875 97.928125 -15.78375 98.85625 -16.1875 99.8125 C-19.46738189 103.77097815 -24.21426265 105.40475422 -29 107 C-36.93705005 107.69623246 -43.20013925 105.34459493 -49.9375 101.1875 C-50.618125 100.795625 -51.29875 100.40375 -52 100 C-53.485 100.495 -53.485 100.495 -55 101 C-58.44490073 109.15897542 -57.93686117 118.77678873 -55 127 C-54.731875 127.91523438 -54.46375 128.83046875 -54.1875 129.7734375 C-51.21293625 139.6142859 -47.17641577 146.73721345 -39 153 C-37.9171875 154.2375 -37.9171875 154.2375 -36.8125 155.5 C-30.37096001 161.22581333 -22.29426768 163.39465787 -14 165 C-13.67 165.33 -13.34 165.66 -13 166 C-10.77356538 166.12680356 -8.54251223 166.17584894 -6.3125 166.1875 C-4.48138672 166.20876953 -4.48138672 166.20876953 -2.61328125 166.23046875 C0.99355604 166.00041102 3.64162828 165.28502147 7 164 C8.34191406 163.55720703 8.34191406 163.55720703 9.7109375 163.10546875 C18.18638398 160.18504364 24.93038821 156.72578604 31 150 C31.804375 149.154375 32.60875 148.30875 33.4375 147.4375 C39.22506201 140.33125298 42.39319456 131.91046654 44 123 C44.33 122.67 44.66 122.34 45 122 C46.25927947 107.86009057 43.6259855 93.66664539 35 82 C29.08182368 75.18352906 22.49618943 69.95097163 15 65 C12.43679426 63.16646597 9.87895027 61.32578722 7.32421875 59.48046875 C5.02134062 57.89884412 5.02134062 57.89884412 2.26953125 56.98828125 C1.14611328 56.49908203 1.14611328 56.49908203 0 56 C-0.495 54.515 -0.495 54.515 -1 53 C-1.99 52.67 -2.98 52.34 -4 52 Z " fill="#000000" transform="translate(355,260)"/>
<path d="" fill="#000000" transform="translate(0,0)"/>
</svg>
